<?xml version="1.0" encoding="utf-8"?>
<!-- Generator: Adobe Illustrator 16.0.4, SVG Export Plug-In . SVG Version: 6.00 Build 0)  -->
<!DOCTYPE svg PUBLIC "-//W3C//DTD SVG 1.1//EN" "http://www.w3.org/Graphics/SVG/1.1/DTD/svg11.dtd">
<svg version="1.1" id="图层_1" xmlns="http://www.w3.org/2000/svg" xmlns:xlink="http://www.w3.org/1999/xlink" x="0px" y="0px"
	 width="32px" height="32px" viewBox="0 0 32 32" enable-background="new 0 0 32 32" xml:space="preserve">
<path fill-rule="evenodd" clip-rule="evenodd" fill="#FC6023" d="M27.681,26.124c0,0.644-0.523,1.167-1.168,1.167
	c-0.25,0-0.48-0.079-0.67-0.214l-0.004,0.006l-5.662-4.245l-7.895,4.305v-0.002c-0.168,0.094-0.359,0.15-0.564,0.15
	c-0.266,0-0.51-0.092-0.707-0.243l-6.156-4.617c-0.32-0.208-0.535-0.569-0.535-0.979V5.878c0-0.645,0.523-1.169,1.168-1.169
	c0.275,0,0.527,0.101,0.727,0.26h0.002l5.6,4.201l7.934-4.327l0.002,0.001c0.16-0.084,0.338-0.135,0.531-0.135
	c0.277,0,0.527,0.101,0.729,0.26l0,0l6.133,4.601c0.029,0.019,0.057,0.042,0.084,0.065l0.012,0.007l0,0
	c0.268,0.214,0.441,0.538,0.441,0.908V26.124z M10.55,23.782V11.141L6.655,8.22v12.643L10.55,23.782z M19.114,7.849l-6.229,3.398
	v12.906l6.229-3.397V7.849z M25.345,11.141L21.45,8.22v12.653l3.895,2.921V11.141z"/>
</svg>
