<?xml version="1.0" encoding="utf-8"?>
<!-- Generator: Adobe Illustrator 16.0.4, SVG Export Plug-In . SVG Version: 6.00 Build 0)  -->
<!DOCTYPE svg PUBLIC "-//W3C//DTD SVG 1.1//EN" "http://www.w3.org/Graphics/SVG/1.1/DTD/svg11.dtd">
<svg version="1.1" id="图层_1" xmlns="http://www.w3.org/2000/svg" xmlns:xlink="http://www.w3.org/1999/xlink" x="0px" y="0px"
	 width="32px" height="32px" viewBox="0 0 32 32" enable-background="new 0 0 32 32" xml:space="preserve">
<path fill-rule="evenodd" clip-rule="evenodd" fill="#FC6023" d="M27.848,17.225H11.506c-0.677,0-1.226-0.547-1.226-1.225
	c0-0.676,0.549-1.225,1.226-1.225h0.001h16.341c0.677,0,1.226,0.549,1.226,1.225C29.073,16.678,28.524,17.225,27.848,17.225
	 M27.848,10.689H11.506c-0.677,0-1.226-0.549-1.226-1.227c0-0.676,0.549-1.225,1.226-1.225l0,0h16.342
	c0.677,0,1.226,0.549,1.226,1.225C29.073,10.141,28.524,10.689,27.848,10.689 M6.604,23.762L6.604,23.762H4.151
	c-0.676,0-1.225-0.547-1.225-1.225s0.549-1.227,1.225-1.227h2.451h0.001c0.677,0,1.226,0.549,1.226,1.227S7.28,23.762,6.604,23.762
	 M6.604,17.225L6.604,17.225H4.151c-0.676,0-1.225-0.547-1.225-1.225c0-0.676,0.549-1.225,1.225-1.225h2.451h0.001
	c0.677,0,1.226,0.549,1.226,1.225C7.829,16.678,7.28,17.225,6.604,17.225 M6.604,10.689L6.604,10.689H4.151
	c-0.676,0-1.225-0.549-1.225-1.227c0-0.676,0.549-1.225,1.225-1.225h2.451h0.001c0.677,0,1.226,0.549,1.226,1.225
	C7.829,10.141,7.28,10.689,6.604,10.689 M11.506,23.762c-0.677,0-1.226-0.547-1.226-1.225s0.549-1.227,1.226-1.227l0,0h16.342
	c0.677,0,1.226,0.549,1.226,1.227s-0.549,1.225-1.226,1.225H11.506z"/>
</svg>
