<?xml version="1.0" encoding="utf-8"?>
<!-- Generator: Adobe Illustrator 16.0.4, SVG Export Plug-In . SVG Version: 6.00 Build 0)  -->
<!DOCTYPE svg PUBLIC "-//W3C//DTD SVG 1.1//EN" "http://www.w3.org/Graphics/SVG/1.1/DTD/svg11.dtd">
<svg version="1.1" id="图层_1" xmlns="http://www.w3.org/2000/svg" xmlns:xlink="http://www.w3.org/1999/xlink" x="0px" y="0px"
	 width="32px" height="32px" viewBox="0 0 32 32" enable-background="new 0 0 32 32" xml:space="preserve">
<g>
	<path fill-rule="evenodd" clip-rule="evenodd" fill="#999999" d="M19.726,24.024c-0.001,0-0.467,0.001-0.875-0.15
		c-5.285-1.966-8.97-5.537-10.639-10.97C7.547,10.74,8.53,8.786,10.328,8.167c1.068-0.367,1.997-0.365,2.346,1.062
		c0.396,1.622,1.781,3.26-0.344,4.736c-0.188,0.132-0.105,1.026,0.14,1.345c0.926,1.2,1.892,2.396,2.996,3.427
		c0.996,0.929,1.89,1.273,3.447,0.239c1-0.664,3.09,0.137,4.609,0.567c0.33,0.094,0.621,1.525,0.395,2.145
		C23.316,23.333,21.985,24.158,19.726,24.024z"/>
</g>
</svg>
