<?xml version="1.0" encoding="utf-8"?>
<!-- Generator: Adobe Illustrator 16.0.4, SVG Export Plug-In . SVG Version: 6.00 Build 0)  -->
<!DOCTYPE svg PUBLIC "-//W3C//DTD SVG 1.1//EN" "http://www.w3.org/Graphics/SVG/1.1/DTD/svg11.dtd">
<svg version="1.1" id="图层_1" xmlns="http://www.w3.org/2000/svg" xmlns:xlink="http://www.w3.org/1999/xlink" x="0px" y="0px"
	 width="32px" height="32px" viewBox="0 0 32 32" enable-background="new 0 0 32 32" xml:space="preserve">
<path fill-rule="evenodd" clip-rule="evenodd" fill="#FC6023" d="M30.143,9.668l0.002,0.001l-3.974,8.832
	c-0.195,0.436-0.619,0.744-1.119,0.777l-11.447,0.764l0.662,1.89H26.73c1.463,0,2.649,1.187,2.649,2.65
	c0,1.463-1.187,2.648-2.649,2.648c-1.465,0-2.65-1.186-2.65-2.648H11.715c0,1.463-1.187,2.648-2.649,2.648
	c-1.463,0-2.651-1.186-2.651-2.648c0-1.464,1.188-2.65,2.651-2.65h2.394L6.358,7.358H3.324C2.592,7.358,2,6.766,2,6.034
	c0-0.732,0.592-1.325,1.324-1.325h3.975c0.578,0,1.064,0.373,1.245,0.889l0.004-0.002L9.32,7.801h19.616
	c0.732,0,1.326,0.593,1.326,1.325C30.263,9.319,30.219,9.502,30.143,9.668 M10.248,10.45l2.45,6.997l11.384-0.759l2.808-6.238
	H10.248z"/>
</svg>
