<?xml version="1.0" encoding="utf-8"?>
<!-- Generator: Adobe Illustrator 16.0.4, SVG Export Plug-In . SVG Version: 6.00 Build 0)  -->
<!DOCTYPE svg PUBLIC "-//W3C//DTD SVG 1.1//EN" "http://www.w3.org/Graphics/SVG/1.1/DTD/svg11.dtd">
<svg version="1.1" id="图层_1" xmlns="http://www.w3.org/2000/svg" xmlns:xlink="http://www.w3.org/1999/xlink" x="0px" y="0px"
	 width="36px" height="36px" viewBox="0 0 36 36" enable-background="new 0 0 36 36" xml:space="preserve">
<path fill="#B2B2B2" d="M28.045,24.998L18.004,14.957L7.83,25.129l0,0c-0.344,0.332-0.813,0.537-1.33,0.537
	c-1.059,0-1.916-0.857-1.916-1.918c0-0.516,0.204-0.984,0.537-1.33H5.12l11.5-11.498h0.001c0.348-0.361,0.838-0.586,1.379-0.586
	c0.001,0,0.004,0,0.004,0c0.002,0,0.003,0,0.005,0c0.541,0,1.03,0.225,1.38,0.586l0,0l11.5,11.498l-0.006,0.006
	c0.329,0.344,0.533,0.811,0.533,1.324c0,1.061-0.857,1.918-1.916,1.918C28.918,25.666,28.396,25.406,28.045,24.998"/>
</svg>
