<?xml version="1.0" encoding="utf-8"?>
<!-- Generator: Adobe Illustrator 16.0.4, SVG Export Plug-In . SVG Version: 6.00 Build 0)  -->
<!DOCTYPE svg PUBLIC "-//W3C//DTD SVG 1.1//EN" "http://www.w3.org/Graphics/SVG/1.1/DTD/svg11.dtd">
<svg version="1.1" id="图层_1" xmlns="http://www.w3.org/2000/svg" xmlns:xlink="http://www.w3.org/1999/xlink" x="0px" y="0px"
	 width="40px" height="40px" viewBox="0 0 40 40" enable-background="new 0 0 40 40" xml:space="preserve">
<path id="muffin_2_" fill-rule="evenodd" clip-rule="evenodd" fill="#B2B2B2" d="M35.525,22.708c-2.157,1.41-3.7,1.128-5.729-0.396
	c-0.897-0.674-1.729-1.077-2.541-1.224c-1.602-0.375-3.182,0.658-3.938,1.224l0.024,0.031c-2.36,1.754-4.153,1.679-6.433-0.031
	c-2.234-1.677-4.408-1.755-6.747,0c-2.233,1.675-3.782,1.668-5.69,0.424c-0.185-0.752-0.284-1.526-0.284-2.32
	c0-5.163,4.084-9.565,9.958-11.337c0.687,2.609,3.056,4.537,5.88,4.537c2.804,0,5.158-1.896,5.865-4.475
	c5.817,1.812,9.922,6.173,9.922,11.274C35.812,21.199,35.711,21.965,35.525,22.708z M26.887,11.119
	c-0.514,1.871-4.989,3.802-7.023,3.802c-2.051,0-6.143-1.952-6.641-3.846c-4.264,1.284-7.466,4.558-7.466,8.305
	c0,0.577,0.074,1.219,0.207,1.765c1.386,0.902,2.746,0.75,4.366-0.466c2.173-1.669,5.647-0.743,7.271,0.475
	c1.654,1.241,2.955,1.296,4.668,0.022l-0.017-0.022c2.432-1.824,5.442-1.996,7.469-0.475c1.473,1.105,2.83,1.625,4.396,0.603
	c0.134-0.539,0.207-1.41,0.207-1.979C34.324,15.601,31.108,12.435,26.887,11.119z M31.512,20.03c-0.748,0-1.355-0.605-1.355-1.354
	c0-0.75,0.607-1.355,1.355-1.355c0.75,0,1.355,0.605,1.355,1.355C32.867,19.425,32.262,20.03,31.512,20.03z M20.127,20.03
	c-0.748,0-1.355-0.605-1.355-1.354c0-0.75,0.607-1.355,1.355-1.355c0.75,0,1.356,0.605,1.356,1.355
	C21.483,19.425,20.877,20.03,20.127,20.03z M8.109,20.03c-0.749,0-1.354-0.605-1.354-1.354c0-0.75,0.605-1.355,1.354-1.355
	s1.356,0.605,1.356,1.355C9.466,19.425,8.858,20.03,8.109,20.03z M20.025,12.074c-2.162,0-3.913-1.752-3.913-3.914
	c0-2.16,1.751-3.913,3.913-3.913S23.939,6,23.939,8.16C23.939,10.322,22.188,12.074,20.025,12.074z M17.752,6.646
	c-1.646,2.642,1.404,4.28,1.104,3.742c-0.658-3.181,2.801-4.531,2.801-4.531S19.461,4.53,17.752,6.646z M16.146,24.174
	c2.805,2.104,5.199,2.104,8.003,0c0.48-0.359,0.897-0.627,1.284-0.803c0.482-0.197,0.94-0.272,1.405-0.223
	c1.274,0.209,2.716,1.783,4.72,2.378l-1.492,7.064c-0.527,1.747-1.414,3.162-3.162,3.162H13.247c-1.748,0-2.636-1.415-3.164-3.162
	l-1.507-7.122c0.758-0.253,1.53-0.681,2.349-1.295C12.754,22.802,14.316,22.802,16.146,24.174z M24.179,33.784
	c0.505,0.136,1.024-0.165,1.16-0.671l1.802-5.812c0.136-0.506-0.166-1.025-0.671-1.162c-0.506-0.135-1.027,0.166-1.162,0.671
	l-1.802,5.812C23.37,33.129,23.671,33.648,24.179,33.784z M13.386,27.302l1.801,5.812c0.136,0.506,0.657,0.807,1.163,0.671
	c0.505-0.136,0.807-0.655,0.671-1.161l-1.801-5.812c-0.137-0.505-0.656-0.806-1.163-0.671C13.551,26.276,13.25,26.796,13.386,27.302
	z"/>
</svg>
