<?xml version="1.0" encoding="utf-8"?>
<!-- Generator: Adobe Illustrator 16.0.4, SVG Export Plug-In . SVG Version: 6.00 Build 0)  -->
<!DOCTYPE svg PUBLIC "-//W3C//DTD SVG 1.1//EN" "http://www.w3.org/Graphics/SVG/1.1/DTD/svg11.dtd">
<svg version="1.1" id="Layer_2" xmlns="http://www.w3.org/2000/svg" xmlns:xlink="http://www.w3.org/1999/xlink" x="0px" y="0px"
	 width="40px" height="40px" viewBox="43 43 40 40" enable-background="new 43 43 40 40" xml:space="preserve">
<g>
	<path fill="#FFFFFF" d="M76.63,54.147l-18.016-0.777c-0.515-0.024-0.949,0.377-0.972,0.891c-0.022,0.515,0.377,0.949,0.891,0.971
		l16.797,0.725l-3.303,10.303H57.331l-2.655-14.457c-0.058-0.317-0.276-0.582-0.576-0.699l-4.349-1.708
		c-0.479-0.188-1.02,0.047-1.208,0.527c-0.188,0.479,0.048,1.02,0.527,1.208l3.866,1.519l2.702,14.711
		c0.082,0.442,0.467,0.764,0.917,0.764h0.448l-1.023,2.844c-0.085,0.237-0.05,0.502,0.095,0.709s0.382,0.331,0.635,0.331h0.718
		c-0.445,0.494-0.718,1.147-0.718,1.863c0,1.542,1.254,2.796,2.795,2.796c1.542,0,2.796-1.255,2.796-2.796
		c0-0.716-0.273-1.369-0.718-1.863h6.095c-0.444,0.494-0.718,1.147-0.718,1.863c0,1.542,1.254,2.796,2.796,2.796
		c1.541,0,2.795-1.255,2.795-2.796c0-0.716-0.273-1.369-0.718-1.863h0.874c0.429,0,0.776-0.349,0.776-0.777
		s-0.348-0.776-0.776-0.776H57.815l0.838-2.329h14.054c0.405,0,0.764-0.262,0.887-0.648l3.884-12.114
		c0.089-0.277,0.043-0.579-0.123-0.817C77.188,54.307,76.92,54.16,76.63,54.147z M69.756,72.629c0.685,0,1.242,0.558,1.242,1.242
		c0,0.686-0.558,1.243-1.242,1.243s-1.242-0.558-1.242-1.243C68.514,73.187,69.07,72.629,69.756,72.629z M59.505,72.629
		c0.686,0,1.243,0.558,1.243,1.242c0,0.686-0.557,1.243-1.243,1.243c-0.685,0-1.242-0.558-1.242-1.243
		C58.263,73.187,58.82,72.629,59.505,72.629z"/>
</g>
</svg>
