<?xml version="1.0" encoding="utf-8"?>
<!-- Generator: Adobe Illustrator 16.0.4, SVG Export Plug-In . SVG Version: 6.00 Build 0)  -->
<!DOCTYPE svg PUBLIC "-//W3C//DTD SVG 1.1//EN" "http://www.w3.org/Graphics/SVG/1.1/DTD/svg11.dtd">
<svg version="1.1" id="图层_1" xmlns="http://www.w3.org/2000/svg" xmlns:xlink="http://www.w3.org/1999/xlink" x="0px" y="0px"
	 width="40px" height="40px" viewBox="0 0 40 40" enable-background="new 0 0 40 40" xml:space="preserve">
<g id="turkey_2_">
	<g>
		<path fill-rule="evenodd" clip-rule="evenodd" fill="#B2B2B2" d="M35.243,15.529c-0.251,0-0.489,0.049-0.717,0.116
			c0.207-0.362,0.332-0.775,0.332-1.224c0-1.387-1.124-2.511-2.51-2.511c-1.387,0-2.51,1.124-2.51,2.511
			c0,0.859,0.433,1.617,1.092,2.069l-2.042,2.043l-0.181-0.246c0,0-10.629-4.613-11.397,6.468
			c-2.003-11.423,10.131-9.232,10.537-8.329C22.194,3.086,6.14,12.273,8.084,17.248c-0.95,1.81-1.402,0.724-1.765,0
			c-1.567-4.101-4.157-1.857-4.07-0.271c0.031,0.574,0,1.45,0.088,1.989c0.375,2.287,1.285,4.672,2.787,6.457
			c1.359,1.615,3.295,2.654,5.243,3.39c2.784,1.052,5.719,1.353,8.671,1.442c3.847,0.118,9.883-0.262,11.353-4.727
			c0.427-1.296,0.535-2.646,0.616-3.997l1.168-1.169c1.949,2.081,5.578,1.363,5.578-2.323
			C37.753,16.652,36.629,15.529,35.243,15.529z"/>
	</g>
</g>
</svg>
