<?xml version="1.0" encoding="utf-8"?>
<!-- Generator: Adobe Illustrator 16.0.4, SVG Export Plug-In . SVG Version: 6.00 Build 0)  -->
<!DOCTYPE svg PUBLIC "-//W3C//DTD SVG 1.1//EN" "http://www.w3.org/Graphics/SVG/1.1/DTD/svg11.dtd">
<svg version="1.1" id="图层_1" xmlns="http://www.w3.org/2000/svg" xmlns:xlink="http://www.w3.org/1999/xlink" x="0px" y="0px"
	 width="40px" height="40px" viewBox="0 0 40 40" enable-background="new 0 0 40 40" xml:space="preserve">
<path id="eggs_2_" fill-rule="evenodd" clip-rule="evenodd" fill="#B2B2B2" d="M32.26,23.664c-0.045,0.196-0.085,0.394-0.14,0.589
	c-2.211,7.878-10.69,12.553-18.94,10.441C4.931,32.585,0.035,24.487,2.245,16.61C4.456,8.732,12.936,4.058,21.185,6.169
	c0.341,0.087,0.674,0.188,1.002,0.295c2.393-1.52,5.425-2.094,8.417-1.328c5.527,1.414,8.806,6.839,7.326,12.116
	C37.102,20.203,34.954,22.476,32.26,23.664z M29.871,7.75c-1.928-0.493-3.878-0.219-5.506,0.617
	c-0.021-0.011-0.043-0.019-0.064-0.029c-0.558,0.32-1.078,0.702-1.532,1.156c-0.722-0.335-1.482-0.615-2.287-0.821
	c-6.8-1.739-13.791,2.114-15.614,8.609c-1.822,6.493,2.214,13.17,9.016,14.909c6.801,1.74,13.793-2.113,15.614-8.608
	c0.213-0.754,0.337-1.511,0.396-2.262c0.997-0.23,1.93-0.66,2.744-1.246c0.001,0.068-0.005,0.14-0.003,0.208
	c1.204-0.922,2.128-2.198,2.559-3.731C36.268,12.719,33.886,8.778,29.871,7.75z M31.14,16.924c-0.928-0.236-1.479-1.148-1.23-2.035
	c0.248-0.886,0.979-2.352,1.906-2.114c0.928,0.238,1.703,2.088,1.455,2.975C33.021,16.636,32.067,17.162,31.14,16.924z
	 M29.23,12.651c-0.58-0.148-0.925-0.719-0.77-1.272s0.527-1.822,1.107-1.674s1.149,1.657,0.994,2.212
	C30.407,12.471,29.811,12.8,29.23,12.651z M13.769,27.459c-3.501-0.895-5.578-4.331-4.641-7.675
	c0.938-3.344,3.547-6.271,7.048-5.374c4.962,0.652,6.569,5.274,5.632,8.618C20.869,26.372,17.271,28.355,13.769,27.459z
	 M14.243,15.999c0,0-2.186,0.703-3.116,4.021c-0.932,3.317,1.352,4.818,1.811,5.107C11.726,19.599,14.243,15.999,14.243,15.999z"/>
</svg>
