<?xml version="1.0" encoding="utf-8"?>
<!-- Generator: Adobe Illustrator 16.0.4, SVG Export Plug-In . SVG Version: 6.00 Build 0)  -->
<!DOCTYPE svg PUBLIC "-//W3C//DTD SVG 1.1//EN" "http://www.w3.org/Graphics/SVG/1.1/DTD/svg11.dtd">
<svg version="1.1" id="图层_1" xmlns="http://www.w3.org/2000/svg" xmlns:xlink="http://www.w3.org/1999/xlink" x="0px" y="0px"
	 width="40px" height="40px" viewBox="0 0 40 40" enable-background="new 0 0 40 40" xml:space="preserve">
<path id="fish_2_" fill-rule="evenodd" clip-rule="evenodd" fill="#B2B2B2" d="M35.959,28.29c0.701,1.583,1.703,2.998,1.703,2.998
	s-2.852-1.274-4.252-2.998c-0.883-1.087-1.576-1.82-2.789-3.519c-2.428-1.942-3.23,2.133-5.764,3.69
	c-1.508,0.927-2.82,2.704-9.375,2.158c0.91-1.684,1.547-3.608,1.699-4.658c0.461-3.147,0.361-8.275-4.256-11.03
	c4.053,5.358,2.963,9.826,2.283,11.82c-0.234,0.69-1.273,2.438-2.17,3.357c-6.887-1.647-11.123-6.734-11.123-6.734
	S5.799,12.027,15.57,12.027c9.77,0,8.617,10.377,16.324,10.195c2.973-2.974,6.189-4.248,6.189-4.248S33.957,23.011,35.959,28.29z
	 M9.896,18.277c-0.889,0-1.609,0.721-1.609,1.608s0.721,1.608,1.609,1.608c0.887,0,1.607-0.721,1.607-1.608
	S10.783,18.277,9.896,18.277z M25.279,16.336c0,0,2.73,0.365,4.188,1.699c0.607,0.971-0.244,2.609-0.244,2.609L25.279,16.336z
	 M13.264,11.057c0,0,2.488-2.913,7.768-2.245c-0.242,0.728-0.85,1.759,2.488,5.583C19.455,9.964,13.264,11.057,13.264,11.057z"/>
</svg>
