<?xml version="1.0" encoding="utf-8"?>
<!-- Generator: Adobe Illustrator 16.0.4, SVG Export Plug-In . SVG Version: 6.00 Build 0)  -->
<!DOCTYPE svg PUBLIC "-//W3C//DTD SVG 1.1//EN" "http://www.w3.org/Graphics/SVG/1.1/DTD/svg11.dtd">
<svg version="1.1" id="图层_1" xmlns="http://www.w3.org/2000/svg" xmlns:xlink="http://www.w3.org/1999/xlink" x="0px" y="0px"
	 width="40px" height="40px" viewBox="0 0 40 40" enable-background="new 0 0 40 40" xml:space="preserve">
<g id="meat_2_">
	<g>
		<path fill-rule="evenodd" clip-rule="evenodd" fill="#B2B2B2" d="M36.588,21.625c0.142-0.333,0.22-0.699,0.22-1.083
			c0-1.539-1.247-2.786-2.785-2.786c-1.539,0-2.785,1.247-2.785,2.786c0,0.732,0.285,1.395,0.748,1.889
			c-2.28,0.581-5.472-0.147-8.619-2.414c-3.026-3.03-2.538-8.047-8.841-13.018c-0.192-0.096,4.514,14.503-13.639,21.417
			c0.114,0.072,2.343,1.563,5.797,2.884c0,0,4.9,1.701,10.183,1.701c5.954,0,9.365-1.701,9.365-1.701
			c2.586-1.206,5.158-3.037,7.605-5.688c0.458,0.919,1.396,1.558,2.491,1.558c1.537,0,2.785-1.247,2.785-2.785
			C39.113,22.935,38.002,21.758,36.588,21.625z M20.639,22.847c-4.738-4.29-3.585-8.389-3.585-8.389s1.793,9.093,13.638,9.926
			C30.309,24.704,24.609,25.408,20.639,22.847z M1.4,25.39c1.223,0.755,5.724-0.729,8.871-5.213
			c3.979-5.955,3.937-11.164,2.715-11.919c-1.224-0.757-5.342,1.625-8.614,6.812C1.225,19.554,0.177,24.634,1.4,25.39z
			 M6.187,16.339c1.071-1.247,2.469-1.533,2.884-1.323c0.416,0.212,0.189,2.219-0.88,3.465c-1.07,1.247-2.579,1.263-2.995,1.052
			C4.779,19.323,5.116,17.587,6.187,16.339z"/>
	</g>
</g>
</svg>
