<?xml version="1.0" encoding="utf-8"?>
<!-- Generator: Adobe Illustrator 16.0.4, SVG Export Plug-In . SVG Version: 6.00 Build 0)  -->
<!DOCTYPE svg PUBLIC "-//W3C//DTD SVG 1.1//EN" "http://www.w3.org/Graphics/SVG/1.1/DTD/svg11.dtd">
<svg version="1.1" id="图层_1" xmlns="http://www.w3.org/2000/svg" xmlns:xlink="http://www.w3.org/1999/xlink" x="0px" y="0px"
	 width="40px" height="40px" viewBox="0 0 40 40" enable-background="new 0 0 40 40" xml:space="preserve">
<path id="friend_1_" fill-rule="evenodd" clip-rule="evenodd" fill="#B2B2B2" d="M7.5,35.151l3.18-7.422
	c0,0,0.683-2.475,3.131-2.475h12.832c2.447,0,3.208,2.475,3.208,2.475l2.649,7.422H7.5z M19.956,24.638
	c-5.465,0-9.895-4.43-9.895-9.895s4.429-9.895,9.895-9.895c5.463,0,9.895,4.43,9.895,9.895S25.419,24.638,19.956,24.638z
	 M18.332,7.538c-3.032,1.082,0.682,4.945-5.966,7.205c0,4.191,3.397,7.59,7.59,7.59c4.191,0,7.589-3.398,7.589-7.59
	C23.681,11.556,17.19,13.026,18.332,7.538z"/>
</svg>
