<?xml version="1.0" encoding="utf-8"?>
<!-- Generator: Adobe Illustrator 16.0.4, SVG Export Plug-In . SVG Version: 6.00 Build 0)  -->
<!DOCTYPE svg PUBLIC "-//W3C//DTD SVG 1.1//EN" "http://www.w3.org/Graphics/SVG/1.1/DTD/svg11.dtd">
<svg version="1.1" id="图层_1" xmlns="http://www.w3.org/2000/svg" xmlns:xlink="http://www.w3.org/1999/xlink" x="0px" y="0px"
	 width="36px" height="46.333px" viewBox="0 0 36 46.333" enable-background="new 0 0 36 46.333" xml:space="preserve">
<g>
	<path fill-rule="evenodd" clip-rule="evenodd" fill="#B2B2B2" d="M28.046,18.487L18.005,8.446L7.831,18.618l0,0
		c-0.344,0.332-0.813,0.537-1.33,0.537c-1.059,0-1.916-0.857-1.916-1.918c0-0.516,0.204-0.984,0.537-1.33H5.121l11.5-11.498h0.001
		c0.348-0.361,0.838-0.586,1.379-0.586c0.001,0,0.004,0,0.004,0c0.002,0,0.003,0,0.005,0c0.541,0,1.03,0.225,1.379,0.586l0,0
		l11.5,11.498l-0.005,0.006c0.329,0.344,0.533,0.811,0.533,1.324c0,1.061-0.857,1.918-1.916,1.918
		C28.919,19.155,28.398,18.896,28.046,18.487"/>
	<path fill-rule="evenodd" clip-rule="evenodd" fill="#B2B2B2" d="M7.954,27.846l10.041,10.041l10.174-10.172l0,0
		c0.344-0.332,0.813-0.537,1.33-0.537c1.059,0,1.916,0.857,1.916,1.918c0,0.516-0.204,0.984-0.537,1.33h0.001l-11.5,11.498h-0.001
		c-0.348,0.361-0.838,0.586-1.379,0.586c-0.001,0-0.004,0-0.004,0c-0.002,0-0.003,0-0.005,0c-0.541,0-1.03-0.225-1.379-0.586l0,0
		l-11.5-11.498l0.005-0.006c-0.329-0.344-0.533-0.811-0.533-1.324c0-1.061,0.857-1.918,1.916-1.918
		C7.081,27.178,7.602,27.438,7.954,27.846"/>
</g>
</svg>
