<?xml version="1.0" encoding="utf-8"?>
<!-- Generator: Adobe Illustrator 16.0.4, SVG Export Plug-In . SVG Version: 6.00 Build 0)  -->
<!DOCTYPE svg PUBLIC "-//W3C//DTD SVG 1.1//EN" "http://www.w3.org/Graphics/SVG/1.1/DTD/svg11.dtd">
<svg version="1.1" id="图层_1" xmlns="http://www.w3.org/2000/svg" xmlns:xlink="http://www.w3.org/1999/xlink" x="0px" y="0px"
	 width="40px" height="40px" viewBox="0 0 40 40" enable-background="new 0 0 40 40" xml:space="preserve">
<g id="garnish_2_">
	<g>
		<path fill-rule="evenodd" clip-rule="evenodd" fill="#B2B2B2" d="M26.73,19.662c0,0.587,0.477,1.063,1.064,1.063
			c0.587,0,1.063-0.477,1.063-1.063c0-0.588-0.477-1.063-1.063-1.063C27.207,18.599,26.73,19.074,26.73,19.662z M23.479,15.814
			c0,0.328,0.267,0.595,0.595,0.595c0.326,0,0.594-0.267,0.594-0.595s-0.268-0.594-0.594-0.594
			C23.745,15.221,23.479,15.486,23.479,15.814z M17.599,21.038c0.345,0,0.625-0.281,0.625-0.625c0-0.346-0.28-0.627-0.625-0.627
			c-0.347,0-0.626,0.281-0.626,0.627C16.973,20.757,17.252,21.038,17.599,21.038z M30.672,20.413c-0.415,0-0.751,0.336-0.751,0.751
			c0,0.413,0.336,0.75,0.751,0.75s0.75-0.337,0.75-0.75C31.422,20.749,31.087,20.413,30.672,20.413z M4.42,24.598
			c-0.488-0.739-0.774-1.625-0.774-2.577c0-2.591,2.224-4.315,4.815-4.315c0.049,0,0.097,0.005,0.146,0.007
			c1.23-2.68,3.805-4.919,6.945-4.919c1.849,0,3.544,0.646,4.879,1.722c0.773-0.562,1.721-0.896,2.752-0.896
			c1.966,0,3.647,1.21,4.346,2.926c0.18-0.023,0.363-0.039,0.551-0.039c2.017,0,3.699,1.411,4.122,3.298c0,0,0.001,0,0.003,0
			c2.334,0,4.228,1.894,4.228,4.228c0,0.193-0.022,0.382-0.048,0.567h0.734c0.208-0.515,0.325-2.254,0.325-2.844
			c0-2.479-2.009-4.488-4.488-4.488h-0.002c-0.45-2.005-2.237-3.504-4.376-3.504c-0.2,0-0.396,0.019-0.588,0.044
			c-0.74-1.823-2.525-3.108-4.612-3.108c-1.094,0-2.101,0.356-2.921,0.953c-1.419-1.143-3.219-1.829-5.181-1.829
			c-3.336,0-6.202,1.979-7.508,4.825c-0.052-0.002-0.104-0.008-0.155-0.008c-2.751,0-4.98,2.229-4.98,4.98
			c0,1.525,0.688,4.066,1.768,4.979H4.42z M17.599,15.939c0-0.432-0.35-0.782-0.782-0.782c-0.432,0-0.782,0.351-0.782,0.782
			s0.351,0.782,0.782,0.782C17.249,16.722,17.599,16.371,17.599,15.939z M10.13,30.179h19.528v-1.395H10.13V30.179z M19.916,28.217
			c9.247,0,16.791-1.292,17.358-2.921H2.557C3.124,26.925,10.667,28.217,19.916,28.217z M8.059,20.101
			c-0.364,0-0.657,0.294-0.657,0.655c0,0.364,0.293,0.656,0.657,0.656c0.362,0,0.657-0.292,0.657-0.656
			C8.716,20.395,8.421,20.101,8.059,20.101z M12.094,16.91c0,0.898,0.728,1.626,1.626,1.626c0.899,0,1.626-0.728,1.626-1.626
			c0-0.899-0.727-1.627-1.626-1.627C12.821,15.283,12.094,16.011,12.094,16.91z"/>
	</g>
</g>
</svg>
