<?xml version="1.0" encoding="utf-8"?>
<!-- Generator: Adobe Illustrator 16.0.4, SVG Export Plug-In . SVG Version: 6.00 Build 0)  -->
<!DOCTYPE svg PUBLIC "-//W3C//DTD SVG 1.1//EN" "http://www.w3.org/Graphics/SVG/1.1/DTD/svg11.dtd">
<svg version="1.1" id="图层_1" xmlns="http://www.w3.org/2000/svg" xmlns:xlink="http://www.w3.org/1999/xlink" x="0px" y="0px"
	 width="36px" height="36px" viewBox="0 0 36 36" enable-background="new 0 0 36 36" xml:space="preserve">
<path fill-rule="evenodd" clip-rule="evenodd" fill="#B3B3B3" d="M34.244,29.686c0.583,0.585,0.943,1.391,0.943,2.279
	c0,1.78-1.442,3.223-3.223,3.223c-0.889,0-1.694-0.36-2.279-0.943l-9.445-9.446c-1.917,1.134-4.147,1.796-6.537,1.796
	c-7.12,0-12.891-5.772-12.891-12.891c0-7.12,5.771-12.891,12.891-12.891c7.118,0,12.891,5.771,12.891,12.891
	c0,2.39-0.662,4.62-1.796,6.537L34.244,29.686z M13.703,4.035c-5.339,0-9.668,4.329-9.668,9.668c0,5.34,4.329,9.668,9.668,9.668
	c5.34,0,9.668-4.328,9.668-9.668C23.371,8.364,19.043,4.035,13.703,4.035"/>
</svg>
