<?xml version="1.0" encoding="utf-8"?>
<!-- Generator: Adobe Illustrator 16.0.4, SVG Export Plug-In . SVG Version: 6.00 Build 0)  -->
<!DOCTYPE svg PUBLIC "-//W3C//DTD SVG 1.1//EN" "http://www.w3.org/Graphics/SVG/1.1/DTD/svg11.dtd">
<svg version="1.1" id="图层_1" xmlns="http://www.w3.org/2000/svg" xmlns:xlink="http://www.w3.org/1999/xlink" x="0px" y="0px"
	 width="40px" height="40px" viewBox="0 0 40 40" enable-background="new 0 0 40 40" xml:space="preserve">
<path id="soup_2_" fill-rule="evenodd" clip-rule="evenodd" fill="#B2B2B2" d="M34.126,12.319c-6.002,3.727-8.684,7.355-8.684,7.355
	h-2.605c0,0,4.047-6.014,9.93-10.738c0.311-0.227,0.691-0.363,1.105-0.363c1.041,0,1.885,0.844,1.885,1.885
	C35.757,11.413,35.046,12.194,34.126,12.319z M20.509,17.003c1.631-5.029-7.836-9.111-0.045-12.51
	c-1.488,2.902-0.285,4.648,0.564,5.641C25.56,13.886,21.218,17.003,20.509,17.003z M17.022,19.476
	c1.09-3.371-5.254-6.109-0.031-8.389c-0.998,1.947-0.189,3.117,0.379,3.783C20.409,17.386,17.497,19.476,17.022,19.476z
	 M33.962,22.86v1.896H4.243V22.86c0-1.047,0.848-1.896,1.896-1.896h25.924C33.11,20.964,33.962,21.813,33.962,22.86z M31.495,26.022
	c0.002,0.053,0.016,0.104,0.016,0.158c0,3.928-5.484,7.113-12.252,7.113c-6.766,0-12.25-3.186-12.25-7.113
	c0-0.055,0.016-0.105,0.018-0.158H31.495z M25.741,35.507H12.462v-1.264h13.279V35.507z"/>
</svg>
