<?xml version="1.0" encoding="utf-8"?>
<!-- Generator: Adobe Illustrator 16.0.4, SVG Export Plug-In . SVG Version: 6.00 Build 0)  -->
<!DOCTYPE svg PUBLIC "-//W3C//DTD SVG 1.1//EN" "http://www.w3.org/Graphics/SVG/1.1/DTD/svg11.dtd">
<svg version="1.1" id="图层_1" xmlns="http://www.w3.org/2000/svg" xmlns:xlink="http://www.w3.org/1999/xlink" x="0px" y="0px"
	 width="40px" height="40px" viewBox="0 0 40 40" enable-background="new 0 0 40 40" xml:space="preserve">
<g>
	<path fill="#B2B2B2" d="M11.976,14.037c-1.683-0.708-3.446-1.089-5.299-0.947c-1.106,0.086-1.115,1.819,0,1.733
		c1.713-0.131,3.32,0.213,4.868,0.912c0.402-0.716,0.853-1.309,1.22-1.676c0.422-0.422,1.035-0.921,1.748-1.379
		c-0.059-0.124-0.145-0.24-0.274-0.339c-2.819-2.13-4.268-5.303-5.658-8.45C8.13,2.871,6.638,3.755,7.084,4.767
		c0.68,1.539,1.381,3.032,2.219,4.422c-1.041-1.182-1.99-2.444-2.84-3.757C5.858,4.499,4.357,5.366,4.967,6.307
		C6.867,9.239,9.192,11.919,11.976,14.037z"/>
	<path fill="#B2B2B2" d="M12.059,15.935c-0.573,1.006-1.037,2.268-1.003,3.444c0.03,1.013,0.417,1.857,1.152,2.512l0.851,0.618
		c0.158-1.813,0.648-3.531,1.961-5.025c0.738-0.841,1.96,0.39,1.226,1.227c-1.251,1.424-1.516,3.198-1.532,5.001l1.919,1.395
		c0.232-1.493,0.752-2.903,1.853-4.156c0.738-0.842,1.96,0.391,1.226,1.226c-1.037,1.182-1.394,2.604-1.496,4.081l2.046,1.488
		c0.285-1.187,0.796-2.311,1.69-3.328c0.738-0.843,1.96,0.388,1.226,1.225c-0.829,0.946-1.223,2.045-1.4,3.204l9.515,6.916
		c0.597,0.529,1.23,0.801,1.853,0.801c0.804,0,1.512-0.452,1.843-1.179c0.386-0.845,0.177-1.828-0.575-2.696L20.598,12.862
		c-0.569-0.655-1.325-0.998-2.231-0.998c-1.339,0-2.744,0.714-3.791,1.428c-0.644,0.439-1.152,0.879-1.426,1.151
		C12.805,14.789,12.411,15.313,12.059,15.935z"/>
</g>
</svg>
